<svg width="26" height="26" viewBox="0 0 26 26" fill="none" xmlns="http://www.w3.org/2000/svg">
<path d="M12.7501 13.575C14.4553 13.575 15.8376 12.1927 15.8376 10.4875C15.8376 8.78235 14.4553 7.40002 12.7501 7.40002C11.0449 7.40002 9.6626 8.78235 9.6626 10.4875C9.6626 12.1927 11.0449 13.575 12.7501 13.575Z" stroke="white" stroke-width="1.5" stroke-linecap="round" stroke-linejoin="round"/>
<path d="M6.52515 22.1125V20.35C6.52515 18.3 8.18764 16.65 10.2251 16.65H15.7626C17.8126 16.65 19.4626 18.3125 19.4626 20.35V22.1125" stroke="white" stroke-width="1.5" stroke-linecap="round" stroke-linejoin="round"/>
<path d="M13 24.5625C19.3858 24.5625 24.5625 19.3858 24.5625 13C24.5625 6.61421 19.3858 1.4375 13 1.4375C6.61421 1.4375 1.4375 6.61421 1.4375 13C1.4375 19.3858 6.61421 24.5625 13 24.5625Z" stroke="white" stroke-width="1.5" stroke-linecap="round" stroke-linejoin="round"/>
</svg>
