<svg width="24" height="24" viewBox="0 0 24 24" fill="none" xmlns="http://www.w3.org/2000/svg">
<path d="M12.0001 14.5701C13.4194 14.5701 14.5701 13.4194 14.5701 12.0001C14.5701 10.5807 13.4194 9.43005 12.0001 9.43005C10.5807 9.43005 9.43005 10.5807 9.43005 12.0001C9.43005 13.4194 10.5807 14.5701 12.0001 14.5701Z" stroke="white" stroke-width="1.5" stroke-linecap="round" stroke-linejoin="round"/>
<path fill-rule="evenodd" clip-rule="evenodd" d="M20.52 8.27L19.49 6.49C19.06 5.75 18.12 5.5 17.38 5.93L16.87 6.22C15.84 6.81 14.56 6.07 14.56 4.88V4.29C14.56 3.44 13.87 2.75 13.02 2.75H10.96C10.11 2.75 9.42003 3.44 9.42003 4.29V4.88C9.42003 6.07 8.14 6.81 7.11 6.22L6.60003 5.93C5.86003 5.5 4.92001 5.76 4.49001 6.49L3.46001 8.27C3.03001 9.01 3.29001 9.95 4.02001 10.38L4.53002 10.67C5.56002 11.26 5.56002 12.75 4.53002 13.34L4.02001 13.63C3.28001 14.06 3.03001 15 3.46001 15.74L4.49001 17.52C4.92001 18.26 5.86003 18.51 6.60003 18.08L7.11 17.79C8.14 17.2 9.42003 17.94 9.42003 19.13V19.72C9.42003 20.57 10.11 21.26 10.96 21.26H13.02C13.87 21.26 14.56 20.57 14.56 19.72V19.13C14.56 17.94 15.84 17.2 16.87 17.79L17.38 18.08C18.12 18.51 19.06 18.25 19.49 17.52L20.52 15.74C20.95 15 20.69 14.06 19.96 13.63L19.45 13.34C18.42 12.75 18.42 11.26 19.45 10.67L19.96 10.38C20.7 9.95 20.95 9 20.52 8.27Z" stroke="white" stroke-width="1.5" stroke-linecap="round" stroke-linejoin="round"/>
</svg>
