<svg width="24" height="24" viewBox="0 0 24 24" fill="none" xmlns="http://www.w3.org/2000/svg">
<path d="M12 2C6.49 2 2 6.49 2 12C2 17.51 6.49 22 12 22C17.51 22 22 17.51 22 12C22 6.49 17.51 2 12 2ZM14.42 13.39C14.72 13.69 14.71 14.16 14.42 14.45C14.27 14.59 14.08 14.67 13.89 14.67C13.7 14.67 13.5 14.59 13.36 14.44L12 13.07L10.65 14.44C10.5 14.59 10.31 14.67 10.11 14.67C9.91999 14.67 9.73 14.59 9.59 14.45C9.29 14.16 9.28999 13.69 9.57999 13.39L10.95 12L9.57999 10.61C9.28999 10.31 9.29 9.84 9.59 9.55C9.88 9.26 10.36 9.26 10.65 9.56L12 10.93L13.36 9.56C13.65 9.26 14.12 9.26 14.42 9.55C14.71 9.84 14.72 10.31 14.42 10.61L13.05 12L14.42 13.39Z" fill="#5F7EA2"/>
</svg>
