<svg width="24" height="24" viewBox="0 0 24 24" fill="none" xmlns="http://www.w3.org/2000/svg">
<g filter="url(#filter0_d_626_29)">
<path fill-rule="evenodd" clip-rule="evenodd" d="M24 12C24 17.5228 19.5228 22 14 22C8.47715 22 4 17.5228 4 12C4 6.47715 8.47715 2 14 2C19.5228 2 24 6.47715 24 12ZM13.8629 8.47591C14.2771 8.47266 14.6155 8.80579 14.6188 9.21999L14.6342 11.1758L16.59 11.1912C17.0042 11.1945 17.3373 11.5329 17.3341 11.9471C17.3308 12.3613 16.9924 12.6944 16.5782 12.6912L14.646 12.676L14.6612 14.6082C14.6644 15.0224 14.3313 15.3608 13.9171 15.364C13.5029 15.3673 13.1645 15.0342 13.1612 14.62L13.1458 12.6642L11.19 12.6488C10.7758 12.6455 10.4427 12.3071 10.4459 11.8929C10.4492 11.4787 10.7876 11.1456 11.2018 11.1488L13.134 11.164L13.1188 9.23179C13.1156 8.81759 13.4487 8.47917 13.8629 8.47591Z" fill="#5F7EA2"/>
</g>
<defs>
<filter id="filter0_d_626_29" x="0" y="2" width="28" height="28" filterUnits="userSpaceOnUse" color-interpolation-filters="sRGB">
<feFlood flood-opacity="0" result="BackgroundImageFix"/>
<feColorMatrix in="SourceAlpha" type="matrix" values="0 0 0 0 0 0 0 0 0 0 0 0 0 0 0 0 0 0 127 0" result="hardAlpha"/>
<feOffset dy="4"/>
<feGaussianBlur stdDeviation="2"/>
<feComposite in2="hardAlpha" operator="out"/>
<feColorMatrix type="matrix" values="0 0 0 0 0 0 0 0 0 0 0 0 0 0 0 0 0 0 0.25 0"/>
<feBlend mode="normal" in2="BackgroundImageFix" result="effect1_dropShadow_626_29"/>
<feBlend mode="normal" in="SourceGraphic" in2="effect1_dropShadow_626_29" result="shape"/>
</filter>
</defs>
</svg>
