<svg width="24" height="24" viewBox="0 0 24 24" fill="none" xmlns="http://www.w3.org/2000/svg">
<path fill-rule="evenodd" clip-rule="evenodd" d="M22 12C22 17.5228 17.5228 22 12 22C6.47715 22 2 17.5228 2 12C2 6.47715 6.47715 2 12 2C17.5228 2 22 6.47715 22 12ZM11.8629 8.47591C12.2771 8.47266 12.6155 8.80579 12.6188 9.21999L12.6342 11.1758L14.59 11.1912C15.0042 11.1945 15.3373 11.5329 15.3341 11.9471C15.3308 12.3613 14.9924 12.6944 14.5782 12.6912L12.646 12.676L12.6612 14.6082C12.6644 15.0224 12.3313 15.3608 11.9171 15.364C11.5029 15.3673 11.1645 15.0342 11.1612 14.62L11.1458 12.6642L9.19002 12.6488C8.77582 12.6455 8.44269 12.3071 8.44595 11.8929C8.44921 11.4787 8.78762 11.1456 9.20183 11.1488L11.134 11.164L11.1188 9.23179C11.1156 8.81759 11.4487 8.47917 11.8629 8.47591Z" fill="#5F7EA2"/>
</svg>
